<svg width="40" height="40" viewBox="0 0 40 40" fill="none" xmlns="http://www.w3.org/2000/svg">
<path d="M0 16.1C0 10.4051 0 7.55764 1.12587 5.39026C2.07462 3.56382 3.56382 2.07462 5.39026 1.12587C7.55764 0 10.4051 0 16.1 0H23.9C29.5949 0 32.4424 0 34.6097 1.12587C36.4362 2.07462 37.9254 3.56382 38.8741 5.39026C40 7.55764 40 10.4051 40 16.1V23.9C40 29.5949 40 32.4424 38.8741 34.6097C37.9254 36.4362 36.4362 37.9254 34.6097 38.8741C32.4424 40 29.5949 40 23.9 40H16.1C10.4051 40 7.55764 40 5.39026 38.8741C3.56382 37.9254 2.07462 36.4362 1.12587 34.6097C0 32.4424 0 29.5949 0 23.9V16.1Z" fill="black"/>
<path d="M27.59 11L20 18.59L12.41 11L11 12.41L18.59 20L11 27.59L12.41 29L20 21.41L27.59 29L29 27.59L21.41 20L29 12.41L27.59 11Z" fill="#67D555"/>
</svg>