<svg width="20" height="17" viewBox="0 0 20 17" fill="none" xmlns="http://www.w3.org/2000/svg">
<path fill-rule="evenodd" clip-rule="evenodd" d="M2 2.2C2 2.08954 2.08954 2 2.2 2H5C7.20914 2 9 3.79086 9 6V6.8C9 6.91046 8.91046 7 8.8 7H6C3.79086 7 2 5.20914 2 3V2.2ZM0 0.2C0 0.0895431 0.0895431 0 0.2 0H2H5C7.73183 0 10.0372 1.82571 10.7627 4.32354C10.806 4.47283 10.9948 4.52972 11.1132 4.42897C12.1603 3.5378 13.5173 3 15 3H18H19.8C19.9105 3 20 3.08954 20 3.2V5V6C20 9.31371 17.3137 12 14 12H11.2C11.0895 12 11 12.0895 11 12.2V14.8C11 14.9105 11.0895 15 11.2 15H17.8C17.9105 15 18 15.0895 18 15.2V16.8C18 16.9105 17.9105 17 17.8 17H11H9H2.2C2.08954 17 2 16.9105 2 16.8V15.2C2 15.0895 2.08954 15 2.2 15H8.8C8.91046 15 9 14.9105 9 14.8V12V10V9.2C9 9.08954 8.91046 9 8.8 9H6C2.68629 9 0 6.31371 0 3V2V0.2ZM14 10H11.2C11.0895 10 11 9.91046 11 9.8V9C11 6.79086 12.7909 5 15 5H17.8C17.9105 5 18 5.08954 18 5.2V6C18 8.20914 16.2091 10 14 10Z" fill="#67D555"/>
</svg>